<svg xmlns="http://www.w3.org/2000/svg" xmlns:xlink="http://www.w3.org/1999/xlink" width="500" zoomAndPan="magnify" viewBox="0 0 375 374.999991" height="500" preserveAspectRatio="xMidYMid meet" version="1.0"><defs><clipPath id="c07acbf22f"><path d="M 11.074219 8.84375 L 288 8.84375 L 288 365.84375 L 11.074219 365.84375 Z M 11.074219 8.84375 " clip-rule="nonzero"/></clipPath><clipPath id="024bbd3cff"><path d="M 242 59 L 363.574219 59 L 363.574219 168 L 242 168 Z M 242 59 " clip-rule="nonzero"/></clipPath></defs><g clip-path="url(#c07acbf22f)"><path fill="#ffffff" d="M 287.714844 126.660156 L 279.359375 116.445312 L 225.90625 157.660156 L 181.074219 64.242188 L 154.496094 8.84375 L 132.015625 64.902344 L 34.847656 307.203125 L 11.207031 366.160156 L 58.367188 325.3125 L 192.414062 209.210938 L 192.414062 209.203125 L 233.546875 173.582031 Z M 93.152344 260.023438 L 156.316406 136.414062 L 183.1875 190.601562 Z M 93.152344 260.023438 " fill-opacity="1" fill-rule="nonzero"/></g><path fill="#ffffff" d="M 200.117188 224.746094 L 259.316406 344.148438 L 315.394531 344.148438 L 240.90625 188.925781 Z M 200.117188 224.746094 " fill-opacity="1" fill-rule="nonzero"/><g clip-path="url(#024bbd3cff)"><path fill="#ffffff" d="M 301.523438 168 L 363.808594 59.347656 L 242.792969 91.605469 L 301.777344 107.035156 Z M 301.523438 168 " fill-opacity="1" fill-rule="nonzero"/></g></svg>